<?xml version="1.0" encoding="utf-8"?>
<!-- Generator: Adobe Illustrator 23.0.1, SVG Export Plug-In . SVG Version: 6.00 Build 0)  -->
<svg version="1.1" id="Warstwa_1" xmlns="http://www.w3.org/2000/svg" xmlns:xlink="http://www.w3.org/1999/xlink" x="0px" y="0px"
	 viewBox="0 0 252 125.65" style="enable-background:new 0 0 252 125.65;" xml:space="preserve">
<style type="text/css">
	.st0{fill:#B49B57;}
	.st1{fill:#FFFFFF;}
	.st2{fill:none;}
</style>
<g>
	<path class="st0" d="M105.88,6.04v3.16H80.92v23.38h24.96v3.16H80.92v23.38h24.96v3.16H77.75V6.04H105.88z"/>
	<path class="st0" d="M118.71,6.11h0.25c9.26,0,16.43,2.55,21.52,7.66c5.63,5.65,8.44,12.45,8.44,20.39
		c0,7.97-2.81,14.77-8.44,20.39c-5.09,5.11-12.26,7.66-21.52,7.66h-0.25v0.07h-3.16V6.04h3.16V6.11z M118.71,9.35v49.68h0.25
		c8.34,0,14.75-2.25,19.23-6.75c4.99-4.99,7.49-11.03,7.49-18.11c0-7.05-2.5-13.09-7.49-18.11c-4.48-4.48-10.89-6.71-19.23-6.71
		H118.71z"/>
	<path class="st0" d="M185.82,6.04v3.16h-24.96v23.38h24.96v3.16h-24.96v23.38h24.96v3.16H157.7V6.04H185.82z"/>
	<path class="st0" d="M195.49,6.04h3.48l28.9,50.03V6.04h3.16v56.25h-3.16l-29.21-50.52v50.52h-3.16V6.04z"/>
	<path class="st1" d="M87.74,66.04c2.88,0,5.35,1.02,7.4,3.06c2.05,2.04,3.08,4.5,3.08,7.38c0,2.91-1.49,5.61-4.46,8.12
		c2.62,0.54,5.1,2.09,7.42,4.64c3.75,3.77,5.63,8.33,5.63,13.68c0,5.32-1.88,9.93-5.63,13.82c-3.49,3.61-7.66,5.45-12.52,5.52v0.04
		h-10.9V66.04H87.74z M80.92,69.21v14.38h7.63c1.76-0.16,3.26-0.82,4.5-1.97c1.43-1.31,2.14-3.02,2.14-5.13s-0.72-3.85-2.14-5.22
		c-1.43-1.37-3.2-2.06-5.31-2.06H80.92z M80.92,86.96v32.17h7.73v0.04c3.91-0.26,7.29-1.86,10.13-4.82
		c3.12-3.21,4.68-7.02,4.68-11.43c0-4.41-1.56-8.17-4.68-11.29c-3.12-3.12-6.88-4.68-11.29-4.68H80.92z"/>
	<path class="st1" d="M142.05,100.74h-19.48l-7.84,21.55h-3.38l20.95-57.55l20.92,57.55h-3.34L142.05,100.74z M140.89,97.58
		l-8.58-23.59l-8.58,23.59H140.89z"/>
	<path class="st1" d="M160.26,66.04h3.48l28.9,50.03V66.04h3.16v56.25h-3.16l-29.21-50.52v50.52h-3.16V66.04z"/>
	<path class="st1" d="M209.52,95.05v27.25h-3.16V66.04h3.16v23.94l17.96-23.94h4.08l-16.88,22.64l21.8,33.61h-3.9l-19.97-31.08
		L209.52,95.05z"/>
	<path class="st1" d="M247.29,117.41c0.62,0.61,0.93,1.35,0.93,2.21c0,0.89-0.31,1.64-0.93,2.25c-0.62,0.61-1.37,0.91-2.23,0.91
		s-1.61-0.3-2.23-0.91s-0.93-1.36-0.93-2.25c0-0.87,0.31-1.6,0.93-2.21c0.62-0.61,1.37-0.91,2.23-0.91S246.67,116.8,247.29,117.41z"
		/>
</g>
<rect x="45.88" y="104.82" class="st2" width="79.06" height="3.53"/>
<g>
	<g>
		<path class="st1" d="M71.92,92.22c0.11-0.11,0.21-0.25,0.3-0.39c-0.29-5.09-2.62-10.06-2.43-15.12c-0.06-0.48-0.11-0.95-0.16-1.42
			c0-0.06-0.01-0.11-0.01-0.17c-0.22-2.47-0.15-4.88,1.17-7.31c0.18-0.32,0.36-0.64,0.56-0.95c0.15-0.52,0.28-1.05,0.38-1.58
			c0-0.04-0.01-0.07-0.02-0.11c-0.05-0.59-0.02-1.13,0.09-1.65c-0.02-0.19-0.05-0.38-0.08-0.57c-0.23-0.75-0.44-1.51-0.61-2.28
			c-0.12,0.13-0.25,0.27-0.37,0.4c-0.11-0.46-0.26-0.92-0.47-1.36c-0.7-1.51-1.75-2.77-2.25-4.38c-0.53-1.72-0.28-3.74-0.16-5.5
			c0.18-2.75-4.09-2.73-4.27,0c-0.2,3.09-0.11,5.89,1.12,8.76c0.55,1.27,1.49,2.24,1.91,3.59c0.4,1.28-0.02,2.83-0.5,4.22
			c-1.32-0.99-2.94-1.7-4.64-2.14c-6.09-1.57-12.48-2.17-15.44-8.62c-1.15-2.5-4.83-0.33-3.69,2.16c0.48,1.04,1.07,2,1.76,2.88
			c-0.33-0.02-0.67-0.04-1-0.06c-2.43-0.14-3.91-0.71-4.71-3.15c-1.12-3.38-0.9-6.7-3.56-9.41c-1.93-1.97-4.95,1.05-3.02,3.02
			c1.56,1.59,1.72,3.92,2.1,6.02c0.4,2.15,1.24,4.09,2.73,5.69c1.23,1.31,3.23,1.83,4.94,1.99c2.69,0.25,5.39,0.35,8.09,0.5
			c0.61,0.32,1.24,0.61,1.89,0.87c2.29,0.91,4.63,1.45,7.05,1.89c2,0.36,5.78,1.1,6.41,3.43c-2.5-0.2-5.38,0.94-7.64,1.83
			c-1.76,0.7-3.59,1.09-5.44,1.21c-0.2-0.14-0.43-0.27-0.72-0.34c-1.57-0.41-2.51-1.66-3.55-2.83c-1.25-1.4-2.66-2.56-4.21-3.61
			c-1.54-1.04-3.32-1.74-5.08-2.31c-1.73-0.56-3.94-0.87-5.11-2.42c-1.63-2.17-5.35-0.05-3.69,2.16c2.61,3.46,6.57,3.63,10.23,5.41
			c1.27,0.62,2.34,1.52,3.34,2.49c-0.75-0.31-1.48-0.65-2.19-1.04c-2.41-1.34-4.56,2.35-2.16,3.69c3.86,2.15,8.06,3.18,12.48,3.12
			c2.17-0.03,4.34-0.47,6.41-1.11c1.63-0.5,6.06-3.26,7.66-1.6c0.06,0.58,0.13,1.16,0.21,1.75c0.48,3.55,0.45,7.05-0.12,10.54
			c-2.47-2.66-6.35-3.91-9.9-4.82c-5.67-1.45-11.99-1.96-16.75-5.69c-2.14-1.68-5.19,1.32-3.02,3.02c1.78,1.39,3.67,2.44,5.66,3.28
			c-1.92,0.9-3.67,1.48-6.08,1.01c-2.69-0.52-3.84,3.59-1.14,4.12c2.34,0.46,4.55,0.41,6.85-0.2c1.21-0.32,2.37-0.95,3.43-1.6
			c1.43-0.87,2.73-0.89,4.35-0.81c0.27,0.01,0.51-0.03,0.73-0.09c4.3,0.94,12.44,1.65,13.87,6.68c0.1,0.34,0.25,0.62,0.44,0.84
			l-1.07,27.78h10.14L71.95,92.7C71.95,92.53,71.94,92.38,71.92,92.22z"/>
		<path class="st0" d="M27.92,70.73c-5.73,0-5.73,8.89,0,8.89C33.65,79.62,33.65,70.73,27.92,70.73z"/>
		<path class="st0" d="M24.36,60.95c5.73,0,5.73-8.89,0-8.89C18.63,52.06,18.63,60.95,24.36,60.95z"/>
		<path class="st0" d="M19.03,62.73c-5.73,0-5.73,8.89,0,8.89S24.76,62.73,19.03,62.73z"/>
		<path class="st0" d="M44.81,42.72c-5.73,0-5.73,8.89,0,8.89S50.54,42.72,44.81,42.72z"/>
		<path class="st0" d="M26.58,48.06c5.73,0,5.73-8.89,0-8.89S20.85,48.06,26.58,48.06z"/>
		<path class="st0" d="M36.81,40.94c5.73,0,5.73-8.89,0-8.89S31.08,40.94,36.81,40.94z"/>
		<path class="st0" d="M51.48,32.5c-5.73,0-5.73,8.89,0,8.89C57.21,41.39,57.21,32.5,51.48,32.5z"/>
		<path class="st0" d="M55.92,57.84c5.73,0,5.73-8.89,0-8.89C50.19,48.95,50.19,57.84,55.92,57.84z"/>
		<path class="st0" d="M63.93,44.95c5.73,0,5.73-8.89,0-8.89C58.19,36.05,58.19,44.95,63.93,44.95z"/>
		<path class="st0" d="M44.81,22.27c-5.73,0-5.73,8.89,0,8.89S50.54,22.27,44.81,22.27z"/>
		<path class="st0" d="M60.37,23.16c-5.73,0-5.73,8.89,0,8.89S66.1,23.16,60.37,23.16z"/>
		<path class="st0" d="M28.36,31.61c5.73,0,5.73-8.89,0-8.89S22.63,31.61,28.36,31.61z"/>
		<path class="st0" d="M13.25,52.95c5.73,0,5.73-8.89,0-8.89S7.51,52.95,13.25,52.95z"/>
		<path class="st0" d="M16.8,29.39c-5.73,0-5.73,8.89,0,8.89C22.54,38.28,22.54,29.39,16.8,29.39z"/>
		<path class="st0" d="M47.48,98.74c5.73,0,5.73-8.89,0-8.89C41.74,89.85,41.74,98.74,47.48,98.74z"/>
		<path class="st0" d="M31.92,102.29c5.73,0,5.73-8.89,0-8.89C26.18,93.4,26.18,102.29,31.92,102.29z"/>
		<path class="st0" d="M23.47,92.51c5.73,0,5.73-8.89,0-8.89S17.74,92.51,23.47,92.51z"/>
		<path class="st0" d="M13.25,84.07c5.73,0,5.73-8.89,0-8.89S7.51,84.07,13.25,84.07z"/>
		<path class="st0" d="M7.91,66.28c5.73,0,5.73-8.89,0-8.89S2.18,66.28,7.91,66.28z"/>
		<path class="st0" d="M52.81,22.27c5.73,0,5.73-8.89,0-8.89S47.08,22.27,52.81,22.27z"/>
		<path class="st0" d="M36.81,10.27c-5.73,0-5.73,8.89,0,8.89S42.54,10.27,36.81,10.27z"/>
		<path class="st0" d="M58.82,2.65c-5.73,0-5.73,8.89,0,8.89C64.56,11.54,64.56,2.65,58.82,2.65z"/>
	</g>
</g>
</svg>
