<?xml version="1.0" encoding="utf-8"?>
<!-- Generator: Adobe Illustrator 23.0.1, SVG Export Plug-In . SVG Version: 6.00 Build 0)  -->
<svg version="1.1" id="Warstwa_1" xmlns="http://www.w3.org/2000/svg" xmlns:xlink="http://www.w3.org/1999/xlink" x="0px" y="0px"
	 viewBox="0 0 212.4 141.95" style="enable-background:new 0 0 212.4 141.95;" xml:space="preserve">
<style type="text/css">
	.st0{fill:#B49B57;}
</style>
<g>
	<path class="st0" d="M49.4,10v3.16H24.44v23.38H49.4v3.16H24.44v23.38H49.4v3.16H21.27V10H49.4z"/>
	<path class="st0" d="M62.23,10.07h0.25c9.26,0,16.43,2.55,21.52,7.66c5.63,5.65,8.44,12.45,8.44,20.39
		c0,7.97-2.81,14.77-8.44,20.39c-5.09,5.11-12.26,7.66-21.52,7.66h-0.25v0.07h-3.16V10h3.16V10.07z M62.23,13.3v49.68h0.25
		c8.34,0,14.75-2.25,19.23-6.75c4.99-4.99,7.49-11.03,7.49-18.11c0-7.05-2.5-13.09-7.49-18.11c-4.48-4.48-10.89-6.71-19.23-6.71
		H62.23z"/>
	<path class="st0" d="M129.34,10v3.16h-24.96v23.38h24.96v3.16h-24.96v23.38h24.96v3.16h-28.13V10H129.34z"/>
	<path class="st0" d="M139.01,10h3.48l28.9,50.03V10h3.16v56.25h-3.16l-29.21-50.52v50.52h-3.16V10z"/>
	<path d="M31.26,70c2.88,0,5.35,1.02,7.4,3.06c2.05,2.04,3.08,4.5,3.08,7.38c0,2.91-1.49,5.61-4.46,8.12
		c2.62,0.54,5.1,2.09,7.42,4.64c3.75,3.77,5.63,8.33,5.63,13.68c0,5.32-1.88,9.93-5.63,13.82c-3.49,3.61-7.66,5.45-12.52,5.52v0.04
		h-10.9V70H31.26z M24.44,73.16v14.38h7.63c1.76-0.16,3.26-0.82,4.5-1.97c1.43-1.31,2.14-3.02,2.14-5.13s-0.72-3.85-2.14-5.22
		c-1.43-1.37-3.2-2.06-5.31-2.06H24.44z M24.44,90.92v32.17h7.73v0.04c3.91-0.26,7.29-1.86,10.13-4.82
		c3.12-3.21,4.68-7.02,4.68-11.43c0-4.41-1.56-8.17-4.68-11.29c-3.12-3.12-6.88-4.68-11.29-4.68H24.44z"/>
	<path d="M85.57,104.7H66.1l-7.84,21.55h-3.38L75.84,68.7l20.92,57.55h-3.34L85.57,104.7z M84.41,101.54l-8.58-23.59l-8.58,23.59
		H84.41z"/>
	<path d="M103.79,70h3.48l28.9,50.03V70h3.16v56.25h-3.16l-29.21-50.52v50.52h-3.16V70z"/>
	<path d="M153.04,99v27.25h-3.16V70h3.16v23.94L171,70h4.08l-16.88,22.64l21.8,33.61h-3.9l-19.97-31.08L153.04,99z"/>
	<path d="M190.81,121.36c0.62,0.61,0.93,1.35,0.93,2.21c0,0.89-0.31,1.64-0.93,2.25c-0.62,0.61-1.37,0.91-2.23,0.91
		s-1.61-0.3-2.23-0.91s-0.93-1.36-0.93-2.25c0-0.87,0.31-1.6,0.93-2.21c0.62-0.61,1.37-0.91,2.23-0.91S190.19,120.75,190.81,121.36z
		"/>
</g>
</svg>
