<?xml version="1.0" encoding="utf-8"?>
<!-- Generator: Adobe Illustrator 23.0.1, SVG Export Plug-In . SVG Version: 6.00 Build 0)  -->
<svg version="1.1" id="Warstwa_1" xmlns="http://www.w3.org/2000/svg" xmlns:xlink="http://www.w3.org/1999/xlink" x="0px" y="0px"
	 viewBox="0 0 273.82 151.76" style="enable-background:new 0 0 273.82 151.76;" xml:space="preserve">
<style type="text/css">
	.st0{fill:#B49B57;}
</style>
<g>
	<path class="st0" d="M110.82,19.81v3.16H85.86v23.38h24.96v3.16H85.86v23.38h24.96v3.16H82.69V19.81H110.82z"/>
	<path class="st0" d="M123.65,19.88h0.25c9.26,0,16.43,2.55,21.52,7.66c5.63,5.65,8.44,12.45,8.44,20.39
		c0,7.97-2.81,14.77-8.44,20.39c-5.09,5.11-12.26,7.66-21.52,7.66h-0.25v0.07h-3.16V19.81h3.16V19.88z M123.65,23.11v49.68h0.25
		c8.34,0,14.75-2.25,19.23-6.75c4.99-4.99,7.49-11.03,7.49-18.11c0-7.05-2.5-13.09-7.49-18.11c-4.48-4.48-10.89-6.71-19.23-6.71
		H123.65z"/>
	<path class="st0" d="M190.76,19.81v3.16H165.8v23.38h24.96v3.16H165.8v23.38h24.96v3.16h-28.13V19.81H190.76z"/>
	<path class="st0" d="M200.43,19.81h3.48l28.9,50.03V19.81h3.16v56.25h-3.16L203.6,25.54v50.52h-3.16V19.81z"/>
	<path d="M92.68,79.81c2.88,0,5.35,1.02,7.4,3.06c2.05,2.04,3.08,4.5,3.08,7.38c0,2.91-1.49,5.61-4.46,8.12
		c2.62,0.54,5.1,2.09,7.42,4.64c3.75,3.77,5.63,8.33,5.63,13.68c0,5.32-1.88,9.93-5.63,13.82c-3.49,3.61-7.66,5.45-12.52,5.52v0.04
		h-10.9V79.81H92.68z M85.86,82.97v14.38h7.63c1.76-0.16,3.26-0.82,4.5-1.97c1.43-1.31,2.14-3.02,2.14-5.13s-0.72-3.85-2.14-5.22
		c-1.43-1.37-3.2-2.06-5.31-2.06H85.86z M85.86,100.72v32.17h7.73v0.04c3.91-0.26,7.29-1.86,10.13-4.82
		c3.12-3.21,4.68-7.02,4.68-11.43c0-4.41-1.56-8.17-4.68-11.29c-3.12-3.12-6.88-4.68-11.29-4.68H85.86z"/>
	<path d="M146.99,114.51h-19.48l-7.84,21.55h-3.38l20.95-57.55l20.92,57.55h-3.34L146.99,114.51z M145.83,111.34l-8.58-23.59
		l-8.58,23.59H145.83z"/>
	<path d="M165.2,79.81h3.48l28.9,50.03V79.81h3.16v56.25h-3.16l-29.21-50.52v50.52h-3.16V79.81z"/>
	<path d="M214.46,108.81v27.25h-3.16V79.81h3.16v23.94l17.96-23.94h4.08l-16.88,22.64l21.8,33.61h-3.9l-19.97-31.08L214.46,108.81z"
		/>
	<path d="M252.23,131.17c0.62,0.61,0.93,1.35,0.93,2.21c0,0.89-0.31,1.64-0.93,2.25c-0.62,0.61-1.37,0.91-2.23,0.91
		s-1.61-0.3-2.23-0.91s-0.93-1.36-0.93-2.25c0-0.87,0.31-1.6,0.93-2.21c0.62-0.61,1.37-0.91,2.23-0.91S251.61,130.56,252.23,131.17z
		"/>
</g>
<g>
	<g>
		<path d="M76.86,105.98c0.11-0.11,0.21-0.25,0.3-0.39c-0.29-5.09-2.62-10.06-2.43-15.12c-0.06-0.48-0.11-0.95-0.16-1.42
			c0-0.06-0.01-0.11-0.01-0.17c-0.22-2.47-0.15-4.88,1.17-7.31c0.18-0.32,0.36-0.64,0.56-0.95c0.15-0.52,0.28-1.05,0.38-1.58
			c0-0.04-0.01-0.07-0.02-0.11c-0.05-0.59-0.02-1.13,0.09-1.65c-0.02-0.19-0.05-0.38-0.08-0.57c-0.23-0.75-0.44-1.51-0.61-2.28
			c-0.12,0.13-0.25,0.27-0.37,0.4c-0.11-0.46-0.26-0.92-0.47-1.36c-0.7-1.51-1.75-2.77-2.25-4.38c-0.53-1.72-0.28-3.74-0.16-5.5
			c0.18-2.75-4.09-2.73-4.27,0c-0.2,3.09-0.11,5.89,1.12,8.76c0.55,1.27,1.49,2.24,1.91,3.59c0.4,1.28-0.02,2.83-0.5,4.22
			c-1.32-0.99-2.94-1.7-4.64-2.14c-6.09-1.57-12.48-2.17-15.44-8.62c-1.15-2.5-4.83-0.33-3.69,2.16c0.48,1.04,1.07,2,1.76,2.88
			c-0.33-0.02-0.67-0.04-1-0.06c-2.43-0.14-3.91-0.71-4.71-3.15c-1.12-3.38-0.9-6.7-3.56-9.41c-1.93-1.97-4.95,1.05-3.02,3.02
			c1.56,1.59,1.72,3.92,2.1,6.02c0.4,2.15,1.24,4.09,2.73,5.69c1.23,1.31,3.23,1.83,4.94,1.99c2.69,0.25,5.39,0.35,8.09,0.5
			c0.61,0.32,1.24,0.61,1.89,0.87c2.29,0.91,4.63,1.45,7.05,1.89c2,0.36,5.78,1.1,6.41,3.43c-2.5-0.2-5.38,0.94-7.64,1.83
			c-1.76,0.7-3.59,1.09-5.44,1.21c-0.2-0.14-0.43-0.27-0.72-0.34c-1.57-0.41-2.51-1.66-3.55-2.83c-1.25-1.4-2.66-2.56-4.21-3.61
			c-1.54-1.04-3.32-1.74-5.08-2.31c-1.73-0.56-3.94-0.87-5.11-2.42c-1.63-2.17-5.35-0.05-3.69,2.16c2.61,3.46,6.57,3.63,10.23,5.41
			c1.27,0.62,2.34,1.52,3.34,2.49c-0.75-0.31-1.48-0.65-2.19-1.04c-2.41-1.34-4.56,2.35-2.16,3.69c3.86,2.15,8.06,3.18,12.48,3.12
			c2.17-0.03,4.34-0.47,6.41-1.11c1.63-0.5,6.06-3.26,7.66-1.6c0.06,0.58,0.13,1.16,0.21,1.75c0.48,3.55,0.45,7.05-0.12,10.54
			c-2.47-2.66-6.35-3.91-9.9-4.82c-5.67-1.45-11.99-1.96-16.75-5.69c-2.14-1.68-5.19,1.32-3.02,3.02c1.78,1.39,3.67,2.44,5.66,3.28
			c-1.92,0.9-3.67,1.48-6.08,1.01c-2.69-0.52-3.84,3.59-1.14,4.12c2.34,0.46,4.55,0.41,6.85-0.2c1.21-0.32,2.37-0.95,3.43-1.6
			c1.43-0.87,2.73-0.89,4.35-0.81c0.27,0.01,0.51-0.03,0.73-0.09c4.3,0.94,12.44,1.65,13.87,6.68c0.1,0.34,0.25,0.62,0.44,0.84
			l-1.07,27.78h10.14l-1.07-29.18C76.89,106.3,76.88,106.14,76.86,105.98z"/>
		<path class="st0" d="M32.86,84.49c-5.73,0-5.73,8.89,0,8.89C38.59,93.38,38.59,84.49,32.86,84.49z"/>
		<path class="st0" d="M29.3,74.71c5.73,0,5.73-8.89,0-8.89C23.57,65.82,23.57,74.71,29.3,74.71z"/>
		<path class="st0" d="M23.97,76.49c-5.73,0-5.73,8.89,0,8.89S29.7,76.49,23.97,76.49z"/>
		<path class="st0" d="M49.75,56.49c-5.73,0-5.73,8.89,0,8.89S55.49,56.49,49.75,56.49z"/>
		<path class="st0" d="M31.53,61.82c5.73,0,5.73-8.89,0-8.89S25.79,61.82,31.53,61.82z"/>
		<path class="st0" d="M41.75,54.71c5.73,0,5.73-8.89,0-8.89S36.02,54.71,41.75,54.71z"/>
		<path class="st0" d="M56.42,46.26c-5.73,0-5.73,8.89,0,8.89C62.15,55.15,62.15,46.26,56.42,46.26z"/>
		<path class="st0" d="M60.87,71.6c5.73,0,5.73-8.89,0-8.89C55.13,62.71,55.13,71.6,60.87,71.6z"/>
		<path class="st0" d="M68.87,58.71c5.73,0,5.73-8.89,0-8.89C63.13,49.82,63.13,58.71,68.87,58.71z"/>
		<path class="st0" d="M49.75,36.04c-5.73,0-5.73,8.89,0,8.89S55.49,36.04,49.75,36.04z"/>
		<path class="st0" d="M65.31,36.93c-5.73,0-5.73,8.89,0,8.89S71.04,36.93,65.31,36.93z"/>
		<path class="st0" d="M33.3,45.37c5.73,0,5.73-8.89,0-8.89S27.57,45.37,33.3,45.37z"/>
		<path class="st0" d="M18.19,66.71c5.73,0,5.73-8.89,0-8.89S12.45,66.71,18.19,66.71z"/>
		<path class="st0" d="M21.75,43.15c-5.73,0-5.73,8.89,0,8.89C27.48,52.04,27.48,43.15,21.75,43.15z"/>
		<path class="st0" d="M52.42,112.5c5.73,0,5.73-8.89,0-8.89C46.69,103.61,46.69,112.5,52.42,112.5z"/>
		<path class="st0" d="M36.86,116.06c5.73,0,5.73-8.89,0-8.89C31.13,107.17,31.13,116.06,36.86,116.06z"/>
		<path class="st0" d="M28.41,106.28c5.73,0,5.73-8.89,0-8.89S22.68,106.28,28.41,106.28z"/>
		<path class="st0" d="M18.19,97.83c5.73,0,5.73-8.89,0-8.89S12.45,97.83,18.19,97.83z"/>
		<path class="st0" d="M12.85,80.05c5.73,0,5.73-8.89,0-8.89S7.12,80.05,12.85,80.05z"/>
		<path class="st0" d="M57.75,36.04c5.73,0,5.73-8.89,0-8.89S52.02,36.04,57.75,36.04z"/>
		<path class="st0" d="M41.75,24.04c-5.73,0-5.73,8.89,0,8.89S47.48,24.04,41.75,24.04z"/>
		<path class="st0" d="M63.76,16.41c-5.73,0-5.73,8.89,0,8.89S69.5,16.41,63.76,16.41z"/>
	</g>
</g>
</svg>
